# xmcd
#
# Track frame offsets: 
#        150
#        11629
#        23663
#        37639
#        50425
#        64915
#        75277
#        87368
#        97295
#        107899
#        121146
#        134068
#        146567
#        160050
#        170421
#        183256
#        198452
#        211438
#        222175
#        239874
#
# Disc length: 3421 seconds
#
# Revision: 0
# Processed by: cddbd v1.5.2PL0 Copyright (c) Steve Scherf et al.
# Submitted via: ExactAudioCopyFreeDBPlugin 1.0
#
DISCID=1b0d5b14
DTITLE=Various Artist - Electric Blues CD1
DYEAR=1900
DGENRE=Blues
TTITLE0=John Lee Hooker - Boom Boom
TTITLE1=Elmore James - Blues Before Sunrise
TTITLE2=Howlin' Wolf - Smokestack Lightnin'
TTITLE3=Otis Rush - Three Times A Fool
TTITLE4=Johnny Guitar Watson - Cuttin' In
TTITLE5=Lightnin' Slim - Mind Your Own Business
TTITLE6=Muddy Waters - You Shook Me
TTITLE7=Buddy Guy - First Time I Met The Blues
TTITLE8=Eddie 'Blues Man' Kirkland - Down On My Knees
TTITLE9=B.B. King - Woman I Love
TTITLE10=Clarence Gatemouth Brown - Depression Blues
TTITLE11=Roscoe Shelton - Please Think It Over
TTITLE12=Guitar Slim - The Things That I Used To Do
TTITLE13=Smokey Hogg - I Love You Baby
TTITLE14=Young John Watson - Half Pint-A-Whiskey
TTITLE15=Willie Dixon and Memphis Slim - That's My Baby
TTITLE16=Albert King - Dyna Flow
TTITLE17=Eddie Taylor - Lookin' For Trouble
TTITLE18=Lonnie Johnson - I Don't Hurt Anymore
TTITLE19=Jimmy Witherspoon - Stormy Monday
EXTD=
EXTT0=
EXTT1=
EXTT2=
EXTT3=
EXTT4=
EXTT5=
EXTT6=
EXTT7=
EXTT8=
EXTT9=
EXTT10=
EXTT11=
EXTT12=
EXTT13=
EXTT14=
EXTT15=
EXTT16=
EXTT17=
EXTT18=
EXTT19=
PLAYORDER=
